<svg version="1.1" baseProfile="tiny"
	 xmlns="http://www.w3.org/2000/svg" xmlns:xlink="http://www.w3.org/1999/xlink" xmlns:a="http://ns.adobe.com/AdobeSVGViewerExtensions/3.0/"
	 x="0px" y="0px" width="431.8px" height="78px" viewBox="0 0 431.8 78" xml:space="preserve">
<g id="XMLID_15_">
	<g id="XMLID_22_">
		<path id="XMLID_54_" fill="#57C8E8" d="M108.1,71h-7v-4.7h-0.1c-0.7,1.5-1.8,2.8-3.4,3.9c-1.6,1.1-3.5,1.7-5.8,1.7
			c-1.9,0-3.6-0.3-5-1c-1.4-0.7-2.5-1.6-3.4-2.7c-0.9-1.1-1.5-2.4-1.9-3.8c-0.4-1.4-0.6-2.9-0.6-4.4V41.4h7.4v16.4
			c0,0.9,0.1,1.8,0.2,2.7c0.1,0.9,0.4,1.8,0.8,2.6c0.4,0.8,1,1.4,1.7,1.9c0.7,0.5,1.7,0.7,2.9,0.7c1.2,0,2.2-0.2,3.1-0.7
			c0.9-0.5,1.6-1.1,2.2-1.8c0.6-0.7,1-1.6,1.3-2.6c0.3-1,0.4-1.9,0.4-2.9V41.4h7.4V71z"/>
		<path id="XMLID_52_" fill="#57C8E8" d="M112.5,41.4h7.4V71h-7.4V41.4z"/>
		<path id="XMLID_50_" fill="#57C8E8" d="M145,49.6c-0.6-0.8-1.4-1.5-2.6-2.1c-1.2-0.6-2.3-0.8-3.5-0.8c-1.4,0-2.6,0.3-3.6,0.8
			c-1,0.6-1.9,1.3-2.6,2.2c-0.7,0.9-1.2,1.9-1.5,3.1c-0.3,1.1-0.5,2.3-0.5,3.4c0,1.2,0.2,2.3,0.5,3.4c0.4,1.1,0.9,2.1,1.6,3.1
			c0.7,0.9,1.6,1.6,2.6,2.2c1,0.6,2.3,0.8,3.7,0.8c1.2,0,2.3-0.2,3.5-0.7c1.2-0.5,2.1-1.1,2.8-2l4.6,4.7c-1.2,1.3-2.8,2.3-4.7,3
			c-1.9,0.7-4,1.1-6.2,1.1c-2.2,0-4.2-0.3-6.2-1c-2-0.7-3.7-1.7-5.1-3.1c-1.5-1.4-2.6-3-3.5-4.9c-0.8-1.9-1.3-4.1-1.3-6.6
			c0-2.4,0.4-4.5,1.3-6.5c0.8-1.9,2-3.6,3.4-4.9c1.4-1.4,3.1-2.4,5-3.1c1.9-0.7,4-1.1,6.1-1.1c2.2,0,4.3,0.4,6.3,1.2
			c2,0.8,3.6,2,4.8,3.4L145,49.6z"/>
		<path id="XMLID_48_" fill="#57C8E8" d="M152.3,31l7.4-4.4v27.3h0.2l11.2-12.5h9.5l-12.8,13.4L181.4,71h-9.8l-11.7-15.2h-0.2V71
			h-7.4V31z"/>
		<path id="XMLID_46_" fill="#A6A8AB" d="M183.4,41.4h7.1v4.9h0.1c0.8-1.7,2-3.1,3.5-4.2c1.5-1.1,3.2-1.6,5.2-1.6c0.3,0,0.6,0,0.9,0
			c0.3,0,0.6,0.1,0.9,0.2v6.8c-0.5-0.1-0.9-0.2-1.3-0.2c-0.4,0-0.7-0.1-1-0.1c-1.7,0-3,0.3-4.1,0.9c-1,0.6-1.8,1.4-2.4,2.2
			c-0.6,0.9-1,1.7-1.2,2.6c-0.2,0.9-0.3,1.6-0.3,2.2V71h-7.4V41.4z"/>
		<path id="XMLID_43_" fill="#A6A8AB" d="M231.4,56.6c0,0.3,0,0.7,0,1c0,0.3,0,0.7-0.1,1h-22.5c0.1,1.1,0.4,2,0.8,2.9
			c0.5,0.9,1.1,1.6,1.9,2.3c0.8,0.6,1.7,1.1,2.6,1.5c1,0.4,2,0.6,3.1,0.6c1.8,0,3.4-0.3,4.7-1c1.3-0.7,2.3-1.6,3.1-2.8l4.9,3.9
			c-2.9,3.9-7.2,5.9-12.7,5.9c-2.3,0-4.4-0.4-6.4-1.1c-1.9-0.7-3.6-1.7-5-3c-1.4-1.3-2.5-2.9-3.3-4.8c-0.8-1.9-1.2-4.1-1.2-6.5
			c0-2.4,0.4-4.6,1.2-6.5c0.8-2,1.9-3.6,3.3-5c1.4-1.4,3-2.4,5-3.2c1.9-0.8,4-1.1,6.2-1.1c2.1,0,4,0.3,5.7,1c1.7,0.7,3.3,1.7,4.5,3
			c1.3,1.3,2.3,3,3,5C231,51.5,231.4,53.9,231.4,56.6z M224,53.2c0-0.9-0.1-1.8-0.4-2.7c-0.3-0.9-0.7-1.6-1.3-2.3
			c-0.6-0.7-1.3-1.2-2.2-1.6c-0.9-0.4-1.9-0.6-3.1-0.6c-2.2,0-4.1,0.7-5.6,2c-1.5,1.3-2.4,3.1-2.6,5.1H224z"/>
		<path id="XMLID_40_" fill="#A6A8AB" d="M253.7,67.2h-0.2c-0.7,1.3-1.9,2.4-3.6,3.2c-1.6,0.8-3.5,1.3-5.6,1.3
			c-1.2,0-2.4-0.2-3.7-0.5c-1.3-0.3-2.5-0.8-3.6-1.5c-1.1-0.7-2-1.7-2.7-2.8c-0.7-1.2-1.1-2.6-1.1-4.3c0-2.2,0.6-4,1.9-5.3
			c1.3-1.3,2.9-2.3,4.8-3c2-0.7,4.2-1.2,6.6-1.4c2.4-0.2,4.8-0.3,7.1-0.3v-0.7c0-1.8-0.7-3.2-2-4.1c-1.3-0.9-2.9-1.3-4.8-1.3
			c-1.6,0-3.1,0.3-4.5,1c-1.4,0.7-2.6,1.5-3.6,2.4l-3.8-4.5c1.7-1.6,3.6-2.7,5.8-3.5c2.2-0.8,4.4-1.2,6.7-1.2c2.6,0,4.8,0.4,6.5,1.1
			c1.7,0.7,3.1,1.7,4,2.9c1,1.2,1.7,2.5,2.1,4c0.4,1.5,0.6,3,0.6,4.4v18h-6.9V67.2z M253.6,57.5h-1.7c-1.2,0-2.4,0.1-3.8,0.2
			c-1.3,0.1-2.5,0.3-3.6,0.7c-1.1,0.3-2,0.8-2.8,1.5c-0.7,0.6-1.1,1.5-1.1,2.6c0,0.7,0.2,1.3,0.5,1.8c0.3,0.5,0.7,0.9,1.2,1.1
			c0.5,0.3,1,0.5,1.7,0.6c0.6,0.1,1.2,0.2,1.9,0.2c2.5,0,4.5-0.7,5.8-2c1.3-1.4,2-3.2,2-5.6V57.5z"/>
		<path id="XMLID_38_" fill="#A6A8AB" d="M264.3,31l7.4-4.4V71h-7.4V31z"/>
		<path id="XMLID_35_" fill="#6D6E70" d="M304.5,56.6c0,0.3,0,0.7,0,1c0,0.3,0,0.7-0.1,1H282c0.1,1.1,0.4,2,0.8,2.9
			c0.5,0.9,1.1,1.6,1.9,2.3c0.8,0.6,1.7,1.1,2.6,1.5c1,0.4,2,0.6,3.1,0.6c1.8,0,3.4-0.3,4.7-1c1.3-0.7,2.3-1.6,3.1-2.8l4.9,3.9
			c-2.9,3.9-7.2,5.9-12.7,5.9c-2.3,0-4.4-0.4-6.4-1.1c-1.9-0.7-3.6-1.7-5-3c-1.4-1.3-2.5-2.9-3.3-4.8c-0.8-1.9-1.2-4.1-1.2-6.5
			c0-2.4,0.4-4.6,1.2-6.5c0.8-2,1.9-3.6,3.3-5c1.4-1.4,3-2.4,5-3.2c1.9-0.8,4-1.1,6.2-1.1c2.1,0,4,0.3,5.7,1c1.7,0.7,3.3,1.7,4.5,3
			c1.3,1.3,2.3,3,3,5C304.2,51.5,304.5,53.9,304.5,56.6z M297.1,53.2c0-0.9-0.1-1.8-0.4-2.7c-0.3-0.9-0.7-1.6-1.3-2.3
			c-0.6-0.7-1.3-1.2-2.2-1.6c-0.9-0.4-1.9-0.6-3.1-0.6c-2.2,0-4.1,0.7-5.6,2c-1.5,1.3-2.4,3.1-2.6,5.1H297.1z"/>
		<path id="XMLID_33_" fill="#6D6E70" d="M325.3,49.3c-0.7-0.9-1.6-1.6-2.7-2.3c-1.2-0.6-2.4-1-3.8-1c-1.2,0-2.3,0.2-3.3,0.7
			c-1,0.5-1.5,1.3-1.5,2.5c0,1.2,0.5,2,1.6,2.4c1.1,0.5,2.7,1,4.8,1.4c1.1,0.2,2.2,0.6,3.4,1c1.1,0.4,2.2,1,3.1,1.6
			c0.9,0.7,1.7,1.5,2.2,2.5c0.6,1,0.9,2.2,0.9,3.7c0,1.8-0.3,3.3-1,4.6c-0.7,1.3-1.6,2.3-2.7,3.1c-1.1,0.8-2.4,1.3-3.9,1.7
			c-1.5,0.3-3.1,0.5-4.7,0.5c-2.3,0-4.5-0.4-6.7-1.3c-2.2-0.8-4-2-5.4-3.6l4.9-4.6c0.8,1.1,1.9,2,3.2,2.7c1.3,0.7,2.8,1,4.4,1
			c0.5,0,1.1-0.1,1.6-0.2c0.6-0.1,1.1-0.3,1.5-0.6c0.5-0.3,0.9-0.6,1.1-1.1c0.3-0.5,0.4-1,0.4-1.7c0-1.2-0.6-2.1-1.7-2.7
			c-1.1-0.5-2.8-1.1-5.1-1.6c-1.1-0.2-2.2-0.6-3.2-1c-1-0.4-2-0.9-2.8-1.5c-0.8-0.6-1.5-1.4-2-2.4c-0.5-0.9-0.7-2.1-0.7-3.5
			c0-1.6,0.3-3.1,1-4.3c0.7-1.2,1.6-2.2,2.7-2.9c1.1-0.8,2.4-1.3,3.8-1.7c1.4-0.4,2.8-0.6,4.3-0.6c2.1,0,4.2,0.4,6.3,1.1
			c2,0.7,3.6,1.9,4.8,3.4L325.3,49.3z"/>
		<path id="XMLID_31_" fill="#6D6E70" d="M331.1,47.3v-5.9h5.2v-3l7.3-4.4v7.5h7.4v5.9h-7.4v13.8c0,1.3,0.2,2.4,0.7,3.3
			c0.5,0.9,1.5,1.3,3.2,1.3c0.5,0,1-0.1,1.6-0.2c0.6-0.1,1.1-0.3,1.5-0.5l0.2,5.8c-0.7,0.2-1.4,0.4-2.3,0.6
			c-0.9,0.1-1.8,0.2-2.6,0.2c-2,0-3.6-0.3-4.8-0.8c-1.2-0.6-2.2-1.3-2.9-2.3c-0.7-1-1.2-2.1-1.5-3.3c-0.3-1.3-0.4-2.6-0.4-4V47.3
			H331.1z"/>
		<path id="XMLID_28_" fill="#6D6E70" d="M372.6,67.2h-0.2c-0.7,1.3-1.9,2.4-3.6,3.2c-1.6,0.8-3.5,1.3-5.6,1.3
			c-1.2,0-2.4-0.2-3.7-0.5c-1.3-0.3-2.5-0.8-3.6-1.5c-1.1-0.7-2-1.7-2.7-2.8c-0.7-1.2-1.1-2.6-1.1-4.3c0-2.2,0.6-4,1.9-5.3
			c1.3-1.3,2.9-2.3,4.8-3c2-0.7,4.2-1.2,6.6-1.4c2.4-0.2,4.8-0.3,7.1-0.3v-0.7c0-1.8-0.7-3.2-2-4.1c-1.3-0.9-2.9-1.3-4.8-1.3
			c-1.6,0-3.1,0.3-4.5,1c-1.4,0.7-2.6,1.5-3.6,2.4l-3.8-4.5c1.7-1.6,3.6-2.7,5.8-3.5c2.2-0.8,4.4-1.2,6.7-1.2c2.6,0,4.8,0.4,6.5,1.1
			c1.7,0.7,3.1,1.7,4,2.9c1,1.2,1.7,2.5,2.1,4c0.4,1.5,0.6,3,0.6,4.4v18h-6.9V67.2z M372.5,57.5h-1.7c-1.2,0-2.4,0.1-3.8,0.2
			c-1.3,0.1-2.5,0.3-3.6,0.7c-1.1,0.3-2,0.8-2.8,1.5c-0.7,0.6-1.1,1.5-1.1,2.6c0,0.7,0.2,1.3,0.5,1.8c0.3,0.5,0.7,0.9,1.2,1.1
			c0.5,0.3,1,0.5,1.7,0.6c0.6,0.1,1.2,0.2,1.9,0.2c2.5,0,4.5-0.7,5.8-2c1.3-1.4,2-3.2,2-5.6V57.5z"/>
		<path id="XMLID_26_" fill="#6D6E70" d="M381.2,47.3v-5.9h5.2v-3l7.3-4.4v7.5h7.4v5.9h-7.4v13.8c0,1.3,0.2,2.4,0.7,3.3
			c0.5,0.9,1.5,1.3,3.2,1.3c0.5,0,1-0.1,1.6-0.2c0.6-0.1,1.1-0.3,1.5-0.5l0.2,5.8c-0.7,0.2-1.4,0.4-2.3,0.6
			c-0.9,0.1-1.8,0.2-2.6,0.2c-2,0-3.6-0.3-4.8-0.8c-1.2-0.6-2.2-1.3-2.9-2.3c-0.7-1-1.2-2.1-1.5-3.3c-0.3-1.3-0.4-2.6-0.4-4V47.3
			H381.2z"/>
		<path id="XMLID_23_" fill="#6D6E70" d="M431.8,56.6c0,0.3,0,0.7,0,1c0,0.3,0,0.7-0.1,1h-22.5c0.1,1.1,0.4,2,0.8,2.9
			c0.5,0.9,1.1,1.6,1.9,2.3c0.8,0.6,1.7,1.1,2.6,1.5c1,0.4,2,0.6,3.1,0.6c1.8,0,3.4-0.3,4.7-1c1.3-0.7,2.3-1.6,3.1-2.8l4.9,3.9
			c-2.9,3.9-7.2,5.9-12.7,5.9c-2.3,0-4.4-0.4-6.4-1.1c-1.9-0.7-3.6-1.7-5-3c-1.4-1.3-2.5-2.9-3.3-4.8c-0.8-1.9-1.2-4.1-1.2-6.5
			c0-2.4,0.4-4.6,1.2-6.5c0.8-2,1.9-3.6,3.3-5c1.4-1.4,3-2.4,5-3.2c1.9-0.8,4-1.1,6.2-1.1c2.1,0,4,0.3,5.7,1c1.7,0.7,3.3,1.7,4.5,3
			c1.3,1.3,2.3,3,3,5C431.4,51.5,431.8,53.9,431.8,56.6z M424.3,53.2c0-0.9-0.1-1.8-0.4-2.7c-0.3-0.9-0.7-1.6-1.3-2.3
			c-0.6-0.7-1.3-1.2-2.2-1.6c-0.9-0.4-1.9-0.6-3.1-0.6c-2.2,0-4.1,0.7-5.6,2c-1.5,1.3-2.4,3.1-2.6,5.1H424.3z"/>
	</g>
	<polygon id="XMLID_21_" fill="#6D6E70" points="34.4,41.5 34.4,15.9 42.1,12 42.1,39.4 	"/>
	<polygon id="XMLID_20_" fill="#6D6E70" points="42.1,39.4 60.7,56.9 52.5,59.5 34.4,41.5 	"/>
	<path id="XMLID_17_" fill="#57C8E8" d="M72.5,70H62.3c9.7-6,16-18.1,16-31C78.3,17.3,60.8,0,39.2,0S0,17.6,0,39.2
		C0,60.8,17.6,78,39.2,78c0.1,0,37.3,0,37.3,0L72.5,70z M8.5,39.4c0-16.9,13.8-30.7,30.7-30.7s30.7,13.8,30.7,30.7
		c0,16.9-13.8,30.7-30.7,30.7S8.5,56.4,8.5,39.4z"/>
	<polygon id="XMLID_16_" fill="#57C8E8" points="119.9,26.6 112.6,31 112.6,35.8 119.9,35.8 	"/>
</g>
</svg>
